# xmcd
#
# Track frame offsets:
#  150
#  15310
#  30609
#  46171
#  64144
#  81057
#  97784
#  112651
#  128927
#  145389
#  161346
#  179042
#
# Disc length: 2610 seconds
#
# Revision: 0
# Processed by: cddbd v1.4PL0 Copyright (c) Steve Scherf et al.
# Submitted via: AltoMP3_Maker 3.0
#
DISCID=8e0a300c
DTITLE=Bobby Pulido - Siempre Pensando en Ti
DYEAR=1900
DGENRE=
TTITLE0=¿Que Hago Conmigo?
TTITLE1=Lo Mejor Que Tuve
TTITLE2=Me Vuelve Loco
TTITLE3=Mi Amor Por Ti
TTITLE4=A Tu Lado
TTITLE5=Todo Por Ver
TTITLE6=Perdido
TTITLE7=Amor Sin Rodeos
TTITLE8=Soy Yo
TTITLE9=Hey
TTITLE10=Siempre Pensando En Ti
TTITLE11=Somos Dos
EXTD=
EXTT0=
EXTT1=
EXTT2=
EXTT3=
EXTT4=
EXTT5=
EXTT6=
EXTT7=
EXTT8=
EXTT9=
EXTT10=
EXTT11=
PLAYORDER=
